<svg width="70" height="70" viewBox="0 0 70 70" fill="none" xmlns="http://www.w3.org/2000/svg">
<rect width="69.4375" height="69.4375" rx="6.94375" fill="#282A3B"/>
<path d="M10.0026 41.0329L18.8359 8.06641H34.2182C35.8205 8.06641 37.2076 8.39143 38.3793 9.04147C39.5914 9.66056 40.5491 10.5118 41.2522 11.5952C41.9636 12.6477 42.4134 13.8394 42.6016 15.1704C42.8218 16.5015 42.7494 17.848 42.3844 19.21C42.0195 20.572 41.4468 21.8721 40.6664 23.1103C39.8943 24.3175 38.9589 25.4164 37.8603 26.4069C36.7699 27.3665 35.565 28.1558 34.2454 28.7749L36.3883 36.4542H27.6877L26.0708 30.4H20.7351L17.886 41.0329H10.0026ZM22.5142 23.7603H29.7246C30.3655 23.7603 30.9761 23.5746 31.5564 23.2031C32.1769 22.8007 32.7387 22.259 33.2416 21.578C33.7445 20.897 34.1163 20.1077 34.3568 19.21C34.5973 18.3123 34.6124 17.5385 34.402 16.8884C34.232 16.2074 33.9244 15.6812 33.4791 15.3097C33.0338 14.9383 32.5068 14.7526 31.8979 14.7526H24.9278L22.5142 23.7603Z" fill="white"/>
<path d="M10.0026 41.0329L18.8359 8.06641H34.2182C35.8205 8.06641 37.2076 8.39143 38.3793 9.04147C39.5914 9.66056 40.5491 10.5118 41.2522 11.5952C41.9636 12.6477 42.4134 13.8394 42.6016 15.1704C42.8218 16.5015 42.7494 17.848 42.3844 19.21C42.0195 20.572 41.4468 21.8721 40.6664 23.1103C39.8943 24.3175 38.9589 25.4164 37.8603 26.4069C36.7699 27.3665 35.565 28.1558 34.2454 28.7749L36.3883 36.4542H27.6877L26.0708 30.4H20.7351L17.886 41.0329H10.0026ZM22.5142 23.7603H29.7246C30.3655 23.7603 30.9761 23.5746 31.5564 23.2031C32.1769 22.8007 32.7387 22.259 33.2416 21.578C33.7445 20.897 34.1163 20.1077 34.3568 19.21C34.5973 18.3123 34.6124 17.5385 34.402 16.8884C34.232 16.2074 33.9244 15.6812 33.4791 15.3097C33.0338 14.9383 32.5068 14.7526 31.8979 14.7526H24.9278L22.5142 23.7603Z" fill="white"/>
<path d="M46.6137 61.8939L49.9906 42.3778L40.8741 51.9659H36.7969L31.5666 39.2457L26.602 61.3979H19.1724L26.0915 30.4036C26.0915 30.4036 26.4847 30.4036 29.2678 30.4036C32.0509 30.4036 34.3869 28.6973 34.3869 28.6973L40.0722 43.9104L50.9862 29.4729H59.0048L54.0433 61.8939H46.6137Z" fill="white"/>
<path d="M46.6137 61.8939L49.9906 42.3778L40.8741 51.9659H36.7969L31.5666 39.2457L26.602 61.3979H19.1724L26.0915 30.4036C26.0915 30.4036 26.4847 30.4036 29.2678 30.4036C32.0509 30.4036 34.3869 28.6973 34.3869 28.6973L40.0722 43.9104L50.9862 29.4729H59.0048L54.0433 61.8939H46.6137Z" fill="white"/>
</svg>
